<svg xmlns="http://www.w3.org/2000/svg" width="20" height="20" fill="none"><path d="M5.602 19.8c-1.293 0-2.504-.555-3.378-1.44-1.695-1.716-2.167-4.71.21-7.116l9.748-9.87c.988-1 2.245-1.387 3.448-1.06 1.183.32 2.15 1.3 2.468 2.498.322 1.22-.06 2.493-1.046 3.493l-9.323 9.44c-.532.54-1.134.858-1.738.922-.6.064-1.17-.13-1.57-.535-.724-.736-.828-2.117.378-3.337l6.548-6.63c.27-.272.705-.272.974 0s.27.714 0 .986l-6.55 6.63c-.566.572-.618 1.12-.377 1.364.106.106.266.155.45.134.283-.03.606-.216.91-.52l9.323-9.44c.64-.648.885-1.4.7-2.145a2.16 2.16 0 0 0-1.493-1.513c-.726-.197-1.48.052-2.12.7l-9.748 9.87c-1.816 1.84-1.38 3.956-.21 5.143s3.262 1.63 5.08-.212l9.748-9.87c.064-.065.14-.116.223-.15s.173-.053.264-.053.18.018.264.053a.68.68 0 0 1 .223.151c.13.132.202.31.202.494s-.073.362-.202.493L9.25 18.15C8.1 19.312 6.814 19.8 5.602 19.8z" fill="#080808"/></svg>